<svg xmlns="http://www.w3.org/2000/svg" viewBox="0 0 512 512"><defs><linearGradient id="g" x1="0" y1="0" x2="1" y2="1"><stop stop-color="#1d2733"/><stop offset="1" stop-color="#506784"/></linearGradient></defs><rect width="512" height="512" rx="36" fill="url(#g)"/><circle cx="256" cy="190" r="92" fill="#c68642"/><path d="M164 166c20-67 54-101 92-101 47 0 81 36 92 101-26-18-57-29-92-29s-66 11-92 29Z" fill="#2d2118"/><path d="M96 512c10-131 78-210 160-210s150 79 160 210" fill="#202a36"/><path d="M209 300h94l-47 71z" fill="#f0f4f8"/><path d="m230 371 26-46 26 46-26 88z" fill="#0aa4bd"/><circle cx="221" cy="190" r="7"/><circle cx="291" cy="190" r="7"/><path d="M227 237c19 12 39 12 58 0" stroke="#6d3b22" stroke-width="8" fill="none" stroke-linecap="round"/><text x="28" y="474" font-family="Arial" font-size="34" font-weight="700" fill="#fff">CARSON</text></svg>