<svg xmlns="http://www.w3.org/2000/svg" viewBox="0 0 512 512"><defs><linearGradient id="g" x1="0" y1="0" x2="1" y2="1"><stop stop-color="#2f1f3d"/><stop offset="1" stop-color="#7a4c8f"/></linearGradient></defs><rect width="512" height="512" rx="36" fill="url(#g)"/><circle cx="256" cy="190" r="92" fill="#d1a06f"/><path d="M164 166c18-65 52-98 92-98 43 0 79 33 92 98-24-18-56-28-92-28s-68 10-92 28Z" fill="#5b4636"/><path d="M96 512c10-131 78-210 160-210s150 79 160 210" fill="#252033"/><path d="M209 300h94l-47 71z" fill="#f0f4f8"/><path d="m230 371 26-46 26 46-26 88z" fill="#d99a2b"/><circle cx="221" cy="190" r="7"/><circle cx="291" cy="190" r="7"/><path d="M224 236c21 15 43 15 64 0" stroke="#7a4b2d" stroke-width="8" fill="none" stroke-linecap="round"/><text x="28" y="474" font-family="Arial" font-size="32" font-weight="700" fill="#fff">CHARLES</text></svg>