<svg xmlns="http://www.w3.org/2000/svg" viewBox="0 0 512 512"><defs><linearGradient id="g" x1="0" y1="0" x2="1" y2="1"><stop stop-color="#15302c"/><stop offset="1" stop-color="#2a8c74"/></linearGradient></defs><rect width="512" height="512" rx="36" fill="url(#g)"/><circle cx="256" cy="190" r="92" fill="#704214"/><path d="M165 170c15-70 50-106 91-106 45 0 80 36 91 106-24-20-55-31-91-31s-67 11-91 31Z" fill="#101010"/><path d="M96 512c10-131 78-210 160-210s150 79 160 210" fill="#172521"/><path d="M209 300h94l-47 71z" fill="#eef7f4"/><path d="m230 371 26-46 26 46-26 88z" fill="#00bda5"/><circle cx="221" cy="190" r="7"/><circle cx="291" cy="190" r="7"/><path d="M224 236c21 13 43 13 64 0" stroke="#3d210e" stroke-width="8" fill="none" stroke-linecap="round"/><text x="28" y="474" font-family="Arial" font-size="34" font-weight="700" fill="#fff">DARYL</text></svg>