<svg xmlns="http://www.w3.org/2000/svg" viewBox="0 0 512 512"><defs><linearGradient id="g" x1="0" y1="0" x2="1" y2="1"><stop stop-color="#4a2031"/><stop offset="1" stop-color="#a64b6b"/></linearGradient></defs><rect width="512" height="512" rx="36" fill="url(#g)"/><circle cx="256" cy="190" r="92" fill="#8d5524"/><path d="M151 194c8-90 50-137 105-137s97 47 105 137c-23-36-58-55-105-55s-82 19-105 55Z" fill="#241515"/><path d="M96 512c10-131 78-210 160-210s150 79 160 210" fill="#30202a"/><path d="M211 303h90l-45 66z" fill="#f8eef2"/><circle cx="221" cy="190" r="7"/><circle cx="291" cy="190" r="7"/><path d="M225 236c20 14 42 14 62 0" stroke="#4a2413" stroke-width="8" fill="none" stroke-linecap="round"/><text x="28" y="474" font-family="Arial" font-size="34" font-weight="700" fill="#fff">HELEN</text></svg>