<svg xmlns="http://www.w3.org/2000/svg" viewBox="0 0 512 512"><defs><linearGradient id="g" x1="0" y1="0" x2="1" y2="1"><stop stop-color="#3d2b12"/><stop offset="1" stop-color="#b7791f"/></linearGradient></defs><rect width="512" height="512" rx="36" fill="url(#g)"/><circle cx="256" cy="190" r="92" fill="#c68642"/><path d="M151 194c8-90 50-137 105-137s97 47 105 137c-24-35-59-54-105-54s-81 19-105 54Z" fill="#3c2718"/><path d="M96 512c10-131 78-210 160-210s150 79 160 210" fill="#332716"/><path d="M211 303h90l-45 66z" fill="#fff7e6"/><circle cx="221" cy="190" r="7"/><circle cx="291" cy="190" r="7"/><path d="M225 236c20 14 42 14 62 0" stroke="#6d3b22" stroke-width="8" fill="none" stroke-linecap="round"/><text x="28" y="474" font-family="Arial" font-size="32" font-weight="700" fill="#fff">KIRSTIN</text></svg>