<svg xmlns="http://www.w3.org/2000/svg" viewBox="0 0 512 512"><defs><linearGradient id="g" x1="0" y1="0" x2="1" y2="1"><stop stop-color="#102a43"/><stop offset="1" stop-color="#1f6f8b"/></linearGradient></defs><rect width="512" height="512" rx="36" fill="url(#g)"/><circle cx="256" cy="190" r="92" fill="#8d5524"/><path d="M160 177c8-74 47-115 96-115s88 41 96 115c-23-24-54-37-96-37s-73 13-96 37Z" fill="#151515"/><path d="M96 512c10-131 78-210 160-210s150 79 160 210" fill="#172033"/><path d="M209 300h94l-47 71z" fill="#f0f4f8"/><path d="m230 371 26-46 26 46-26 88z" fill="#d61f26"/><circle cx="221" cy="190" r="7"/><circle cx="291" cy="190" r="7"/><path d="M225 236c20 14 42 14 62 0" stroke="#4a2413" stroke-width="8" fill="none" stroke-linecap="round"/><text x="28" y="474" font-family="Arial" font-size="34" font-weight="700" fill="#fff">MARCUS</text></svg>